<?xml version="1.0" standalone="no"?>
<!DOCTYPE svg PUBLIC "-//W3C//DTD SVG 20010904//EN"
 "http://www.w3.org/TR/2001/REC-SVG-20010904/DTD/svg10.dtd">
<svg version="1.0" xmlns="http://www.w3.org/2000/svg"
 width="282.000000pt" height="188.000000pt" viewBox="0 0 282.000000 188.000000"
 preserveAspectRatio="xMidYMid meet">

<g transform="translate(0.000000,188.000000) scale(0.100000,-0.100000)"
fill="#000000" stroke="none">
<path d="M1680 1410 c0 -5 7 -7 15 -4 8 4 15 8 15 10 0 2 -7 4 -15 4 -8 0 -15
-4 -15 -10z"/>
<path d="M1785 1400 c6 -9 -1 -10 -23 -5 -21 4 -43 1 -67 -10 -19 -10 -44 -15
-54 -12 -10 2 -25 1 -32 -4 -19 -12 212 -2 246 11 16 6 25 6 25 0 0 -6 10 -10
23 -10 22 1 22 1 -3 14 -36 19 -124 31 -115 16z"/>
<path d="M2100 1396 c29 -18 60 -21 60 -6 0 6 -11 10 -24 10 -13 0 -33 3 -43
6 -10 3 -7 -2 7 -10z"/>
<path d="M1945 1380 c3 -5 14 -10 23 -10 15 0 15 2 2 10 -20 13 -33 13 -25 0z"/>
<path d="M2049 1379 c-10 -6 -7 -9 14 -9 29 0 35 5 14 13 -8 3 -20 1 -28 -4z"/>
<path d="M1520 1370 c-12 -8 -9 -10 13 -10 16 0 26 4 22 10 -8 12 -16 12 -35
0z"/>
<path d="M625 1356 c17 -7 34 -11 40 -8 5 4 -1 9 -15 13 -42 12 -57 9 -25 -5z"/>
<path d="M838 1353 c7 -3 16 -2 19 1 4 3 -2 6 -13 5 -11 0 -14 -3 -6 -6z"/>
<path d="M898 1353 c7 -3 16 -2 19 1 4 3 -2 6 -13 5 -11 0 -14 -3 -6 -6z"/>
<path d="M943 1353 c9 -2 23 -2 30 0 6 3 -1 5 -18 5 -16 0 -22 -2 -12 -5z"/>
<path d="M1100 1339 c0 -5 5 -7 10 -4 6 3 10 8 10 11 0 2 -4 4 -10 4 -5 0 -10
-5 -10 -11z"/>
<path d="M2155 1300 c-3 -5 -15 -10 -25 -10 -10 0 -22 -5 -26 -11 -4 -8 0 -9
15 -4 14 4 27 0 38 -11 16 -16 15 -16 -32 -9 -28 5 -57 8 -65 7 -65 -6 -173
-13 -212 -13 -27 0 -48 -4 -48 -8 0 -4 -7 -8 -15 -8 -8 0 -15 4 -15 8 0 12
-52 17 -84 7 -17 -5 -128 -12 -246 -14 -118 -3 -273 -6 -345 -7 -166 -4 -165
-4 -166 -24 0 -11 -3 -13 -6 -5 -2 6 -8 10 -13 7 -4 -3 -13 2 -20 10 -14 16
-110 22 -110 6 0 -13 -34 -8 -46 8 -12 15 -84 24 -84 10 0 -5 7 -9 15 -9 8 0
15 -4 15 -8 0 -5 26 -15 58 -22 31 -7 61 -17 67 -22 13 -11 52 -10 60 2 10 17
37 11 42 -8 6 -23 63 -27 63 -4 0 7 6 12 13 9 6 -2 11 -11 9 -21 -3 -14 14
-16 160 -17 90 0 219 -2 288 -4 268 -7 298 -7 309 0 7 4 17 3 24 -2 7 -5 23
-8 37 -7 14 1 79 3 145 4 66 2 145 9 175 17 30 7 81 14 113 15 31 1 57 5 57 9
0 5 -20 20 -44 34 -63 37 -73 51 -52 74 13 14 14 21 5 27 -8 4 -10 3 -5 -4 4
-7 3 -12 -3 -12 -5 0 -13 5 -16 10 -3 6 -10 10 -15 10 -5 0 -12 -4 -15 -10z
m-24 -105 c43 -18 16 -18 -31 0 -19 7 -28 14 -19 14 9 1 32 -6 50 -14z m109
-5 c24 -15 7 -19 -20 -5 -15 8 -19 14 -10 14 8 1 22 -3 30 -9z"/>
<path d="M584 1146 c-7 -18 -63 -29 -142 -27 -34 1 -79 -3 -100 -8 -35 -9
-188 -20 -294 -21 l-48 0 0 -276 0 -276 27 5 c16 2 75 16 133 31 58 14 163 36
235 48 124 22 130 24 133 48 2 14 12 34 21 45 21 24 45 149 42 221 -1 35 3 55
14 64 15 13 22 111 9 144 -8 20 -23 21 -30 2z"/>
<path d="M805 1096 c-13 -9 -16 -20 -11 -39 8 -32 25 -34 54 -7 12 12 22 16
22 10 0 -6 5 -8 10 -5 6 3 10 1 10 -4 0 -6 -4 -12 -10 -12 -5 -1 -15 -2 -22
-3 -18 -2 -21 -25 -4 -32 9 -3 37 -2 63 2 37 7 47 13 49 32 3 14 -1 22 -10 22
-8 0 -16 7 -20 15 -3 9 -18 15 -35 15 -16 0 -41 4 -54 9 -18 7 -30 6 -42 -3z"/>
<path d="M760 1071 c-12 -24 -13 -34 -1 -27 9 6 22 46 15 46 -2 0 -8 -9 -14
-19z"/>
<path d="M2244 1074 c10 -7 23 -11 27 -8 17 10 9 19 -18 21 -26 1 -26 0 -9
-13z"/>
<path d="M980 1055 c0 -18 4 -23 15 -19 8 4 15 1 15 -5 0 -6 -7 -11 -16 -11
-11 0 -15 -6 -11 -20 4 -16 0 -20 -21 -20 -15 0 -34 -5 -42 -11 -12 -9 -12
-10 4 -5 12 4 27 -1 41 -14 15 -14 25 -18 30 -11 3 6 10 9 15 6 4 -3 6 3 3 13
-7 27 21 46 54 36 16 -4 31 -8 36 -8 4 -1 8 -5 10 -11 1 -5 -18 -12 -43 -15
l-45 -5 32 -16 c21 -11 30 -13 27 -5 -3 7 2 13 11 13 8 0 15 -3 15 -7 0 -3 21
-6 48 -7 134 -3 183 -7 188 -15 3 -4 9 -6 13 -4 4 3 95 8 202 11 496 14 649
29 649 64 0 18 -49 48 -89 55 -30 4 -39 10 -35 21 4 9 -1 13 -14 12 -12 0 -19
-4 -16 -8 8 -14 -53 -21 -153 -20 -69 1 -108 -2 -123 -11 -16 -10 -22 -10 -28
-1 -7 12 -112 18 -452 27 -74 2 -177 6 -227 9 l-93 6 0 -24z m190 -85 c0 -5
-7 -10 -15 -10 -8 0 -15 5 -15 10 0 6 7 10 15 10 8 0 15 -4 15 -10z"/>
<path d="M680 1030 c0 -5 7 -10 16 -10 8 0 12 5 9 10 -3 6 -10 10 -16 10 -5 0
-9 -4 -9 -10z"/>
<path d="M763 970 c-3 -11 -12 -20 -20 -20 -8 0 -12 -4 -9 -9 12 -19 41 -4 43
22 2 32 -7 36 -14 7z"/>
<path d="M2105 891 c-6 -5 -57 -12 -115 -15 -138 -9 -201 -16 -222 -28 -12 -5
-18 -5 -18 1 0 7 -37 10 -97 8 -54 -1 -141 -1 -193 1 -52 1 -124 0 -160 -2
-43 -3 -74 0 -92 9 -15 7 -28 9 -30 4 -2 -5 -54 -10 -115 -11 -86 -2 -113 -6
-113 -16 0 -10 -9 -8 -32 6 -38 23 -168 35 -175 16 -4 -12 81 -44 116 -44 12
0 21 -4 21 -9 0 -4 15 -7 33 -6 17 1 47 -4 66 -12 18 -7 54 -13 80 -13 25 0
66 -9 90 -20 28 -13 48 -17 55 -11 7 6 34 4 71 -4 33 -7 51 -13 41 -14 -11 -1
-17 -4 -13 -7 3 -4 19 -2 34 3 18 7 37 7 53 1 14 -5 66 -11 115 -13 50 -1 124
-9 165 -17 87 -18 427 -17 482 1 18 5 40 10 48 9 8 -1 26 0 40 1 l25 1 -25 20
-25 20 30 -10 c21 -8 31 -8 33 -1 2 6 10 11 18 11 25 0 26 26 4 61 -14 23 -20
27 -18 14 2 -12 -3 -20 -12 -20 -8 0 -14 6 -12 13 2 13 -30 45 -72 69 -25 15
-68 17 -81 4z m-19 -88 c-7 -7 -26 7 -26 19 0 6 6 6 15 -2 9 -7 13 -15 11 -17z
m94 12 c7 -9 8 -15 2 -15 -5 0 -12 7 -16 15 -3 8 -4 15 -2 15 2 0 9 -7 16 -15z
m-183 -1 c-3 -3 -12 -4 -19 -1 -8 3 -5 6 6 6 11 1 17 -2 13 -5z m163 -27 c0
-5 -4 -5 -10 -2 -5 3 -10 14 -10 23 0 15 2 15 10 2 5 -8 10 -19 10 -23z m-469
0 c-1 -12 -15 -9 -19 4 -3 6 1 10 8 8 6 -3 11 -8 11 -12z m-121 -7 c0 -5 -5
-10 -11 -10 -5 0 -7 5 -4 10 3 6 8 10 11 10 2 0 4 -4 4 -10z m525 0 c3 -5 1
-10 -4 -10 -6 0 -11 5 -11 10 0 6 2 10 4 10 3 0 8 -4 11 -10z m-488 -26 c-3
-3 -12 -4 -19 -1 -8 3 -5 6 6 6 11 1 17 -2 13 -5z m443 -10 c0 -2 -7 -4 -15
-4 -8 0 -15 4 -15 10 0 5 7 7 15 4 8 -4 15 -8 15 -10z m-276 -19 c-4 -8 -10
-12 -15 -9 -11 6 -2 24 11 24 5 0 7 -7 4 -15z m346 -6 c0 -6 -4 -7 -10 -4 -5
3 -10 11 -10 16 0 6 5 7 10 4 6 -3 10 -11 10 -16z"/>
<path d="M784 761 c3 -5 18 -11 33 -13 16 -3 37 -9 48 -13 19 -7 19 -6 -1 8
-24 18 -89 33 -80 18z"/>
<path d="M890 726 c0 -2 9 -6 20 -9 11 -3 20 -1 20 4 0 5 -9 9 -20 9 -11 0
-20 -2 -20 -4z"/>
<path d="M950 715 c0 -8 4 -15 10 -15 5 0 7 -6 4 -14 -3 -9 3 -17 16 -21 13
-4 19 -12 16 -21 -3 -9 -1 -12 4 -9 13 8 13 35 0 35 -5 0 -10 5 -10 10 0 11
33 14 44 3 4 -4 26 -9 49 -10 23 -2 43 -8 45 -13 2 -5 15 -7 28 -4 15 4 34 0
49 -10 14 -9 29 -15 34 -12 4 3 21 1 37 -4 22 -6 24 -8 8 -9 -14 -1 -20 -7
-19 -21 2 -28 15 -38 15 -12 0 13 6 22 15 22 8 0 15 -4 15 -10 0 -5 -4 -10
-10 -10 -5 0 -10 -6 -10 -14 0 -8 -6 -16 -12 -19 -20 -7 -1 -20 29 -21 16 -1
27 -6 26 -12 -1 -6 17 -11 45 -12 26 0 133 -2 237 -4 105 -2 196 1 203 6 7 5
26 10 44 12 17 2 36 8 42 13 6 4 28 11 48 14 20 3 52 12 70 20 18 8 40 18 48
21 8 3 35 17 59 31 24 14 51 25 59 25 9 0 13 3 9 6 -3 3 -28 1 -54 -5 -79 -19
-559 -17 -673 2 -112 19 -249 27 -256 15 -3 -4 -18 -1 -33 7 -16 8 -59 21 -97
29 -123 26 -134 27 -134 11z m434 -134 c3 -5 -1 -11 -9 -15 -15 -6 -29 7 -18
18 9 9 21 8 27 -3z m-64 -21 c0 -5 -5 -10 -11 -10 -5 0 -7 5 -4 10 3 6 8 10
11 10 2 0 4 -4 4 -10z"/>
<path d="M898 643 c24 -5 30 -19 10 -25 -9 -3 -9 -6 0 -12 7 -4 12 -2 12 3 0
6 7 11 15 11 8 0 15 -9 15 -20 0 -11 5 -20 11 -20 6 0 9 7 5 15 -3 8 0 15 6
15 6 0 -1 9 -15 20 -14 11 -38 19 -54 19 -23 -1 -24 -2 -5 -6z"/>
<path d="M2160 605 c-29 -35 -336 -144 -362 -129 -3 2 -35 -3 -70 -11 -73 -17
-198 -19 -348 -4 -58 5 -147 12 -198 15 -52 2 -110 11 -129 19 -39 17 -99 19
-155 6 -22 -5 -40 -5 -46 1 -9 9 -68 26 -152 45 l-25 6 25 -19 c14 -11 36 -25
50 -31 76 -34 99 -43 109 -43 6 0 11 -7 11 -15 0 -17 18 -19 39 -6 9 6 25 2
46 -10 18 -11 39 -17 48 -13 8 3 44 -1 79 -10 34 -8 103 -18 152 -21 84 -7
122 -17 138 -39 4 -6 15 -6 30 1 14 6 45 7 78 3 30 -4 57 -3 58 1 5 13 36 11
50 -3 9 -9 26 -9 74 1 35 6 86 11 113 10 28 -1 63 4 78 10 16 6 32 9 37 6 5
-3 12 0 15 6 4 5 13 8 21 5 8 -3 14 -1 14 4 0 6 10 5 24 -2 20 -9 33 -7 70 11
25 11 55 21 66 21 11 0 20 4 20 9 0 5 -10 7 -22 4 -22 -4 -22 -4 -4 11 14 12
23 13 33 5 10 -9 21 -7 45 4 18 9 36 14 40 11 4 -3 12 5 18 16 6 11 15 18 19
15 13 -8 20 58 8 73 -6 8 -27 22 -48 32 -32 17 -39 18 -49 5z"/>
<path d="M1220 540 c8 -5 22 -9 30 -9 10 0 8 3 -5 9 -27 12 -43 12 -25 0z"/>
<path d="M2301 464 c0 -11 3 -14 6 -6 3 7 2 16 -1 19 -3 4 -6 -2 -5 -13z"/>
<path d="M2249 451 l-24 -20 27 -1 c29 0 46 16 31 31 -6 6 -19 2 -34 -10z"/>
<path d="M2176 408 c-28 -32 -33 -44 -24 -55 6 -8 23 -13 37 -11 24 3 26 7 27
56 1 28 0 52 -1 52 -2 0 -19 -19 -39 -42z"/>
<path d="M2286 406 c3 -8 -4 -16 -20 -20 -14 -3 -26 -13 -26 -20 0 -25 -55
-74 -96 -84 -21 -6 -68 -15 -104 -21 -36 -6 -82 -13 -102 -17 -23 -4 -38 -2
-38 4 0 5 17 12 38 16 21 3 59 17 84 30 26 13 49 22 52 19 3 -4 6 1 6 10 0 10
-7 17 -16 17 -8 0 -13 4 -9 10 7 11 -41 -3 -95 -28 -19 -9 -64 -17 -100 -18
-36 -1 -85 -5 -110 -9 -44 -8 -157 -13 -290 -14 -36 0 -103 5 -150 11 -47 7
-112 13 -145 14 -71 2 -128 12 -173 31 -18 7 -37 11 -42 8 -5 -3 -28 1 -51 9
-24 8 -45 13 -48 11 -2 -3 1 -5 7 -5 6 0 14 -9 17 -20 3 -11 13 -20 21 -20 8
0 14 -4 14 -8 0 -5 14 -7 30 -4 17 2 30 0 30 -6 0 -6 -10 -8 -21 -5 -16 4 -20
2 -17 -8 3 -10 24 -14 74 -15 39 0 76 -4 82 -8 15 -9 46 -16 92 -20 19 -2 49
-9 65 -16 17 -6 42 -9 58 -6 15 3 27 1 27 -4 0 -10 -23 -17 -69 -19 -19 -1
-40 -6 -46 -11 -7 -5 -15 -7 -18 -3 -4 3 -7 2 -7 -4 0 -14 64 -20 235 -21 77
0 167 -3 200 -7 45 -5 57 -4 49 4 -6 6 -46 14 -90 17 -43 4 -81 9 -84 13 -3 3
-16 7 -30 7 -14 1 -41 4 -60 7 -19 2 -42 5 -50 6 -13 1 -13 2 0 11 25 16 207
12 241 -6 34 -17 91 -22 129 -10 17 6 22 5 15 -2 -5 -5 -18 -12 -28 -14 -10
-1 -18 -7 -17 -13 0 -12 63 -13 103 -2 26 7 27 6 17 -14 -11 -19 -10 -20 12
-15 72 20 104 31 115 38 6 5 14 5 17 -1 3 -5 0 -12 -6 -14 -9 -4 -10 -6 -1 -6
6 -1 18 7 25 18 9 12 36 22 83 30 38 7 101 26 139 43 58 25 77 29 118 24 69
-9 225 4 246 21 15 13 15 13 -5 4 -30 -15 -38 -14 -24 3 9 11 2 15 -41 20 -29
3 -78 7 -110 8 l-56 1 -7 44 c-5 33 -10 43 -25 43 -12 0 -17 -5 -14 -14z m77
-113 c-13 -2 -35 -2 -50 0 -16 2 -5 4 22 4 28 0 40 -2 28 -4z m-523 -53 c0 -5
-5 -10 -11 -10 -5 0 -7 5 -4 10 3 6 8 10 11 10 2 0 4 -4 4 -10z m33 -67 c-7
-2 -19 -2 -25 0 -7 3 -2 5 12 5 14 0 19 -2 13 -5z"/>
<path d="M461 364 c-10 -12 -15 -13 -21 -4 -5 9 -18 10 -36 5 -16 -4 -45 -9
-64 -11 -19 -3 -41 -12 -48 -22 -12 -15 -8 -18 35 -26 44 -8 227 5 240 17 2 3
1 16 -3 31 -5 23 -11 26 -48 26 -24 -1 -47 -7 -55 -16z m77 -21 c-10 -2 -26
-2 -35 0 -10 3 -2 5 17 5 19 0 27 -2 18 -5z"/>
<path d="M585 299 c-16 -6 -17 -8 -3 -8 9 -1 23 -4 32 -7 10 -4 16 -1 16 8 0
16 -16 19 -45 7z"/>
<path d="M348 253 c7 -3 16 -2 19 1 4 3 -2 6 -13 5 -11 0 -14 -3 -6 -6z"/>
<path d="M590 250 c-13 -8 -12 -10 3 -10 9 0 17 5 17 10 0 12 -1 12 -20 0z"/>
<path d="M790 230 c8 -5 24 -10 34 -10 26 0 18 6 -19 14 -22 5 -26 4 -15 -4z"/>
<path d="M858 213 c7 -3 16 -2 19 1 4 3 -2 6 -13 5 -11 0 -14 -3 -6 -6z"/>
<path d="M924 211 c6 -9 64 -18 186 -27 41 -4 72 -3 69 0 -4 4 -26 9 -50 11
-24 2 -78 8 -119 14 -93 13 -92 13 -86 2z"/>
<path d="M2785 159 c-194 -61 -482 -107 -945 -153 -19 -2 120 -2 310 -1 275 2
487 11 613 24 5 1 6 5 3 9 -2 4 9 14 25 21 26 12 29 17 29 62 0 27 -1 49 -2
48 -2 0 -16 -5 -33 -10z"/>
<path d="M0 145 c0 -8 7 -15 15 -15 19 0 19 16 0 24 -9 3 -15 0 -15 -9z"/>
<path d="M22 125 l-23 -12 22 -6 c12 -3 30 -2 39 3 11 6 19 4 27 -8 6 -9 28
-26 49 -37 22 -11 44 -27 51 -35 7 -8 13 -11 13 -6 0 4 11 1 25 -8 21 -14 60
-16 292 -14 147 1 248 3 223 5 -182 12 -431 56 -589 103 -55 17 -102 30 -103
29 -2 -1 -13 -7 -26 -14z"/>
<path d="M50 90 c0 -5 5 -10 10 -10 6 0 10 5 10 10 0 6 -4 10 -10 10 -5 0 -10
-4 -10 -10z"/>
</g>
</svg>
